<?xml version="1.0" encoding="utf-8"?>
<!-- Generator: Adobe Illustrator 23.0.3, SVG Export Plug-In . SVG Version: 6.00 Build 0)  -->
<svg width="3066px" height="1457px" version="1.1" id="Layer_1" xmlns="http://www.w3.org/2000/svg" xmlns:xlink="http://www.w3.org/1999/xlink" x="0px" y="0px"
	 viewBox="0 0 1200 1200" enable-background="new 0 0 1200 1200" xml:space="preserve">
<path fill="#353847" d="M1107.573,396.635c-2.352-1.425-4.542-0.102-6.498-1.063c-1.306-0.642-1.962-2.454-3.334-3.107
	c-4.89-2.327-8.15-1.979-13.551-1.852c0.344-6.662,7.814-9.308,1.402-17.416c-2.779-3.515-7.728-4.456-10.128-7.007
	c-1.517-1.612-1.362-4.66-3.531-6.487c-2.633-2.218-6.025-2.525-9.321-2.46c-9.025,0.179-17.1,7.476-26.03,7.635
	c-8.879,0.158-15.089-9.192-24.657-5.043c-7.629,3.308-9.195,12.258-16.614,16.186c-8.8,4.66-18.196,6.809-26.494,12.628
	c-5.791,4.061-12.033,8.918-16.581,14.411c-2.941,3.552-2.91,5.9-7.288,6.332c-3.565,0.352-7.677-1.927-11.513-1.754
	c-9.967,0.45-44.45,12.525-29.505,27.118c4.81,4.697,15.309,3.086,19.053,8.13c2.426,3.269,2.094,9.536-1.302,11.574
	c-4.756,2.854-19.245,1.526-24.289,1.97c-5.859,0.516-11.387,0.746-17.18-0.41c-6.198-1.236-11.676-3.465-17.988-1.425
	c-3.74,1.208-6.72,4.972-10.584,5.618c-4.967,0.83-9.293-2.066-13.798-3.598c-5.448-1.854-20.412-1.692-21.585-8.999
	c-0.132-0.82,1.722-3.095,1.813-4.408c0.147-2.128-0.405-3.669-0.532-5.721c-0.244-3.963-0.082-7.606,0.401-11.603
	c0.942-7.793,0.5-16.912-8.548-19.538c-23.813-6.912-24.896,28.751-27.492,42.253c-1.737,9.037-4.763,12.467-11.853,17.818
	c-1.857,1.402-5.714,5.913-7.75,6.165c-2.604,0.322-6.32-3.061-9.185-3.568c-4.622-0.818-9.136,1.096-13.724,0.444
	c-4.269-0.607-7.85-3.185-11.906-4.508c-4.215-1.374-8.179-1.243-12.515-1.319c-6.416-0.112-4.59-0.728-8.996-3.329
	c-7.955-4.696-16.348-1.834-24.707-5.833c-9.003-4.307-8.736-12.136-15.406-18.045c-6.442-5.708-13.896-4.586-21.17-3.562
	c-6.822,0.961-11.97-3.876-19.474-0.992c-5.157,1.982-0.634,2.82-6.519,1.384c-2.032-0.496-4.708-2.15-6.486-3.284
	c-8.369-5.336-13.912-15.011-24.326-17.004c-4.637-0.887-8.464,1.259-12.919,0.941c-4.365-0.312-7.141-3.028-10.622-5.381
	c-7.245-4.898-13.557-10.398-20.406-15.772c-4.941-3.877-9.269-5.761-15.409-6.838c-4.079-0.716-10.623-0.367-14.052-3.164
	c-5.362-4.375,0.384-12.086,2.389-18.125c1.744-5.254,3.539-10.492,5.437-15.69c2.38-6.519,4.772-7.826,8.956-12.781
	c7.481-8.862,6.049-21.251-3.801-27.573c-2.003-1.285-4.012-1.938-6.184-2.774c-3.476-1.338-2.741-0.531-4.89-2.498
	c-4.449-4.071-6.823-8.737-12.848-11.321c-4.843-2.077-10.188-1.131-14.719-3.749c-4.897-2.83-9.109-7.59-13.923-10.788
	c-2.542-1.689-6.405-3.414-7.34-6.606c-0.201-0.686,0.651-3.955,0.472-5.211c-0.772-5.417-1.08,0.734-2.691-4.403
	c-3.192-10.173-6.685-17.877-11.652-27.379c9.967,5.041,18.388,7.902,28.349,0.468c10.557-7.879,10.533-19.307,3.478-29.462
	c-4.738-6.82-16.558-14.737-13.14-24.31c1.93-5.403,3.469-3.488,8.045-4.883c5.705-1.739,8.503-5.405,10.858-10.797
	c2.156-4.936,3.551-8.076,7.589-11.928c3.677-3.508,6.921-6.659,8.851-11.516c3.339-8.406,3.146-19.572-2.455-27.002
	c-12.38-16.425-38.879-19.755-56.367-11.691c-1.992,0.919-8.577,6.382-11.023,5.933c-2.194-0.402-4.338-4.888-7.494-5.517
	c-5.533-1.102-7.84,3.859-12.173,4.03c-4.073,0.16-7.193-3.64-9.808-6.457c-8.087-8.71-13.743-18.598-23.019-26.344
	c-8.926-7.455-18.867-19.145-30.02-22.962c-7.389-2.529-15.042-1.033-22.577-0.307c-4.922,0.474-10.203,0.223-14.906,1.931
	c-6.195,2.249-6.894,6.871-11.37,10.361c-6.13,4.78-14.833,0.596-21.726,4.809c-10.152,6.205-9.728,15.44-3.976,23.664
	c3.26,4.661,2.719,10.193,5.938,14.622c4.206,5.787,9.499,2.905,15.164,4.534c5.362,1.542,16.043,11.81,12.652,17.945
	c-2.157,3.901-10.328,4.961-14.183,6.841c-5.184,2.527-9.709,5.908-10.945,11.911c-1.917,9.312,4.085,18.033,11.276,22.656
	c-9.273,6.354-7.731,18.457-5.365,28.504c2.33,9.897,11.302,21.906,22.146,23.004c-4.77,14.972,13.642,15.706,23.316,16.33
	c-6.869,6.752-19.243,9.647-24.871,16.906c-7.267,9.37,1.956,23.682-2.103,33.309c-1.846,4.379-7.671,7.548-10.773,10.998
	c-4.525,5.032-8.135,10.495-10.386,16.853c-1.91,5.393-2.854,7.781-7.998,10.685c-6.725,3.796-11.448,6.002-15.019,13.368
	c-6.28,12.953-7.105,24.353-20.338,32.383c-5.302,3.217-10.492,5.981-14.333,11.017c-4.827,6.329-6.726,14.349-10.938,21.039
	c-3.505,5.568-7.345,8.116-13.696,9.554c-6.197,1.403-12.888,4.335-19.016,5.289c-10.136,1.577-10.646-15.8-23.896-10.176
	c-5.943,2.522-9.659,9.198-12.834,14.43c-4.018,6.621-8.599,11.994-13.1,18.178c-10.187,13.998-2.177,24.755,12.505,28.989
	c12.146,3.502,0.547,15.803,4.401,25.223c1.14,2.788,3.56,5.568,6.158,7.09c3.258,1.909,6.702,0.662,9.677,1.923
	c4.562,1.934,3.389,6.274,5.554,11.732c3.371,8.499,12.353,17.549,11.927,26.636c-0.174,3.705-2.766,11.427-7.762,11.059
	c-3.464-0.255-5.369-5.635-10.041-6.176c-6.657-0.771-10.785,5.03-16.182,7.672c-5.834,2.856-10.324,0.554-16.319-0.8
	c-6.322-1.428-24.406-4.892-30.032,0.282c-1.76,1.619-0.827,4.942-2.197,6.08c-1.617,1.344-6.671-0.112-8.497-0.029
	c-4.607,0.209-10.343,1.367-13.607,4.876c-4.225,4.542-3.33,10.827,1.2,14.977c4.004,3.669,13.704,2.7,16.128,6.103
	c1.089,1.528,0.403,6.896,1.437,9.158c1.346,2.943,3.68,5.505,6.103,7.596c5.504,4.748,12.599,6.99,19.467,8.949
	c6.533,1.864,13.155,3.994,19.892,2.068c5.53-1.58,9.695-4.812,15.637-5.261c-4.586,5.278-9.098,9.311-15.242,12.664
	c-4.016,2.192-11.438,6.055-15.971,6.498c-5.363,0.525-8.355-5.064-13.941-4.241c-4.954,0.73-7.811,5.187-9.361,9.528
	c-3.635,10.176-1.393,20.942,8.667,25.877c9.555,4.687,21.362,2.738,30.097,9.186c8.921,6.586,14.228,16.934,24.991,21.8
	c12.576,5.686,23.411,0.988,34.989-4.488c8.862-4.191,19.547-7.497,25.135-16.158c3.101-4.805,4.484-10.445,1.537-15.638
	c-0.474-0.836-6.844-6.242-6.723-6.849c3.004-1.411,5.925-1.725,8.084-4.618c1.925-2.58,0.678-5.341,2.064-7.611
	c1.015-1.662,5.584-6.295,7.103-1.665c2.055,6.265-8.56,10.592-2.403,18.611c3.787,4.932,10.826,5.107,16.343,4.654
	c-6.694,3.262-12.153,7.294-11.238,15.749c0.524,4.848,3.807,8.626,4.705,13.367c1.373,7.25-1.108,13.885-3.885,20.383
	c-5.584,13.065-5.23,20.442,2.465,32.348c1.267,1.96,4.977,6.324,4.74,8.618c-0.4,3.872-6.691,7.639-7.911,11.803
	c-1.575,5.377,0.562,9.27,2.532,14.026c2.461,5.943,1.679,10.336,1.486,16.742c-0.419,13.912,3.943,28.13,8.065,41.315
	c3.546,11.344,7.84,22.523,13.407,33.039c5.502,10.393,12.894,18.182,15.967,29.636c2.911,10.847,11.799,17.474,16.246,27.798
	c5.269,12.233,7.231,26.261,10.289,39.164c2.616,11.036,5.341,22.296,9.702,32.802c1.632,3.93,3.135,8.181,6.704,10.819
	c5.743,4.244,7.332,1.92,9.435,8.98c3.188,10.704,9.773,19.643,13.611,30.12c2.124,5.799,3.124,12.023,5.76,17.641
	c2.589,5.518,6.981,9.795,9.232,15.489c1.422,3.598,5.181,12.339,5.252,15.921c0.075,3.78-3.35,6.937-2.062,12.352
	c1.26,5.294,5.476,8.247,8.169,12.662c2.666,4.37,2.905,9.462,5.432,13.872c10.966,19.141,42.302,26.392,52.698,2.611
	c3.541-8.099,2.543-14.83,11.684-18.108c10.597-3.8,18.463-2.215,19.012-15.974c0.223-5.598,0.71-6.786,4.207-11.877
	c2.716-3.955,3.631-9.296,6.327-12.967c5.166-7.035,16.12-5.172,18.182-16.532c0.671-3.695-1.538-6.918-1.34-10.111
	c0.211-3.409,3.084-6.236,2.655-10.274c-0.336-3.156-2.255-6.028-2.6-9.242c-0.326-3.039-2.216-13.191-1.411-16.096
	c0.912-3.287,8.659-9.934,10.728-13.108c3.394-5.206,5.943-10.73,7.846-16.644c1.311-4.073,2.398-8.23,2.758-12.506
	c0.184-2.184,0.493-4.369,0.078-6.549c-0.681-3.578-3.494-5.357-4.5-8.303c-1.695-4.968,0.099-8.441,0.337-14.027
	c0.213-4.991-1.035-9.973-1.321-14.936c-0.731-12.696-5.784-27.524-0.964-39.734c3.398-8.609,9.27-12.439,17.656-15.586
	c3.802-1.427,7.868-0.43,11.174-1.791c5.221-2.149,5.508-6.156,8.183-10.203c5.754-8.705,13.847-2.275,22.94-5.755
	c9.788-3.747,10.566-11.419,13.644-20.099c4.867-13.725,20.494-17.02,31.202-25.109c10.817-8.171,21.477-17.258,31.728-26.145
	c10.529-9.128,16.458-21.201,25.848-31.145c4.482-4.746,8.705-7.879,11.845-13.766c1.855-3.479,3.701-10.453,8.212-11.586
	c4.659-1.169,10.694,3.175,16.107,2.24c6.166-1.066,11.885-4.791,16.954-8.242c10.921-7.435,19.225-17.574,20.995-31.025
	c1.714-13.026-2.624-21.256,11.413-27.31c12.179-5.252,18.429-9.069,24.475-21.463c4.227,5.494,12.673,12.415,19.508,6.947
	c-2.007,15.209,17.917,24.976,23.647,8.23c3.519-10.284,2.887-23.553-1.347-33.233c-3.149-7.198-6.844-14.209-10.181-21.328
	c-0.951-2.029-3.766-5.602-4.449-7.481c-1.2-3.302-0.431-6.324-2.531-10.105c-0.594-1.07-3.103-2.371-3.282-3.767
	c-0.39-3.035,3.583-6.882,4.528-9.682c2.394-7.092-0.153-12.523-5.339-17.404c-5.168-4.863-8.653-8.813-4.416-16.453
	c2.813-5.072,7.184-4.691,11.915-6.924c11.433-5.397,9.937-18.49-0.557-23.966c-4.645-2.423-7.8-5.894-12.347-8.626
	c-0.8-0.481-6.47-2.148-7.055-2.782c-2.336-2.533-1.875-2.348-0.653-6.147c0.568-1.766,1.77-7.467,3.277-8.687
	c2.099-1.699,2.599-0.697,5.364-0.425c5.795,0.57,11.995,4.94,17.506,0.598c2.481,4.208,3.683,9.362,7.836,12.391
	c5.121,3.735,12.746,2.585,15.305-3.656c2.542,4.444,3.774,9.831,4.088,14.914c0.283,4.581-3.307,8.894-2.795,12.614
	c1.368,9.949,31.357,10.626,38.796,10.461c7.681-0.17,14.971,0.301,22.623,0.539c6.172,0.192,12.547-1.941,18.614-1.171
	c1.792,0.227,12.909,3.054,12.901,6.224c-0.003,1.14-2.935,1.285-3.262,1.616c-2.944,2.975-4.1,2.387-6.133,6.713
	c-2.429,5.17-2.091,9.37-6.766,13.728c-3.837,3.577-8.772,5.362-13.3,7.825c-10.009,5.443-16.916,13.535-14.002,25.624
	c1.752,7.268,14.788,28.516,24.527,18.113c1.948-2.081,2.78-9.59,3.954-12.336c1.095-2.562,1.874-6.641,3.415-8.702
	c1.668-2.23,3.459-2.308,6.398-3.433c-0.208,11.131,6.594,81.668,30.008,58.982c5.487-5.316,5.842-8.612,4.921-15.829
	c-0.585-4.583-2.438-13.334,1.818-16.595c1.214-0.93,3.579,0.248,5.271-1.109c2.65-2.124,1.906-6.573,2.14-9.527
	c0.579-7.307,2.157-14.54,0.232-21.814c13.963,1.797,23.064,3.779,30.512-10.29c3.445-6.509,5.448-13.616,8.277-20.382
	c1.898-4.54,4.931-9.103,5.777-13.98c0.894-5.155-3.552-11.642-1.808-15.38c0.974-2.088,6.21-4.377,7.999-6.309
	c2.353-2.541,4.153-5.464,5.437-8.679c4.766-11.931-3.572-26.847,9.053-34.11c5.348-3.077,10.382-5.449,15.324-9.31
	c5.219-4.077,9.725-9.718,15.461-13.071c10.968-6.411,15.274,12.628,28.336,6.274c5.303-2.579,7.3-8.13,5.191-13.642
	c-2.521-6.589-7.74-6.845-2.74-12.449c3.922-4.396,10.438-4.611,11.398-11.718C1116.324,406.654,1112.315,399.511,1107.573,396.635z
	 M1064.433,367.496c1.895,0.127,0.462,6.539,1.447,8.003c2.459,3.655,10.995,0.894,11.939,5.039c0.077,0.336-3.282,6.001-3.76,6.77
	c-2.913,4.693-9.097,8.13-13.485,12.319C1058.45,388.848,1059.487,377.384,1064.433,367.496z M1036.38,375.343
	c5.26,0,10.566-2.557,15.388-4.348c-2.676,8.541-3.255,17.699-2.035,26.549c0.322,2.333,2.8,8.906,2.43,11.081
	c-0.547,3.219-7.072,9.219-8.988,12.105c-9.803-14.396-16.178-30.601-17.428-48.054
	C1029.086,374.342,1032.626,375.343,1036.38,375.343z M1007.626,380.529c3.383-2.89,4.317-7.373,7.5-10.353
	c0.785,17.974,6.305,35.166,15.602,50.534c-5.424-1.095-21.051,0.773-24.057-1.901c-2.419-2.152-3.817-10.091-4.942-13.066
	c-1.705-4.508-4.706-9.722-5.476-14.478c-0.128-0.791-1.596-2.807-1.333-3.524C995.524,386.092,1005.773,382.116,1007.626,380.529z
	 M985.151,391.491c3.832,10.13,7.663,20.26,11.495,30.39c-4.576,1.258-11.27,5.761-14.519,3.756
	c-2.816-1.738-5.511-8.786-7.269-11.59c-1.495-2.383-6.481-7.738-6.629-10.569C968.014,399.355,981.374,393.077,985.151,391.491z
	 M939.603,418.857c10.718,2.76,14.571-0.291,20.443-8.737c3.245,5.174,6.491,10.349,9.736,15.523
	c0.825,1.315,4.335,5.204,4.204,6.703c-0.126,1.441-7.708,6.633-8.548,6.559c-4.443-0.394-12.738-8.94-16.369-11.488
	c-4.464-3.133-8.928-6.266-13.392-9.399C937.007,418.2,938.315,418.479,939.603,418.857z M887.053,491.055
	c10.933,0.569,21.865,1.138,32.798,1.707c6.241,0.325,13.092-0.106,19.244,1.002c0.958,0.173,3.624-0.371,4.406,0.229
	c1.455,1.115,1.581,12.257,2.028,14.393c-9.244,0.738-18.488,1.476-27.732,2.214c-3.103,0.248-9.308,1.987-12.259,0.979
	C899.466,509.504,891.652,496.16,887.053,491.055z M918.325,429.755c-2.119-0.54-4.893-1.168-6.845-2.354
	c8.506-11.696,16.309-2.141,24.457,3.578c7.661,5.377,15.322,10.753,22.984,16.13c-1.895,2.461-5.25,11.172-7.652,12.382
	c-0.915,0.461-4.035-0.859-4.917-0.914c-4.22-0.261-8.608-1.599-12.777-2.374C938.319,442.507,931.019,432.984,918.325,429.755z
	 M913.336,465.486c11.828-0.256,22.282,1.738,33.997,3.915c-0.803,2.561-1.994,13.364-3.37,14.142
	c-0.891,0.504-3.181-0.341-4.191-0.218c-6.514,0.794-14.22-0.74-20.759-1.081c-11.339-0.59-22.678-1.181-34.017-1.771
	c4.683-3.744,9.389-7.926,14.303-11.345C903.994,465.862,907.241,465.654,913.336,465.486z M715.731,474.064
	c5.828-0.427,9.967,1.764,15.241,3.791c5.624,2.161,9.8,2.078,15.622,1.823c5.986-0.263,9.2,2.121,14.633,4.915
	c5.959,3.064,13.277,5.621,18.657,9.593c7.294,5.385,4.377,12.061,1.981,20.468c-14.411-5.437-29.386-9.607-44.576-12.181
	c-2.604-0.441-8.789-0.048-10.608-1.48c-1.829-1.44-3.041-8.291-3.918-10.361c-1.201-2.832-2.505-5.618-3.889-8.365
	C717.896,480.325,713.194,474.25,715.731,474.064z M629.952,787.202c-5.295-0.531-12.407,1.5-17.058-0.686
	c-6.088-2.861-12.526-12.527-17.241-17.242c-6.988-6.989-13.976-13.977-20.964-20.966c-7.886-7.887-5.812-19.012-9.25-29.615
	c22.247,22.244,44.495,44.489,66.742,66.733C631.438,786.018,630.695,786.61,629.952,787.202z M503.799,911.468
	c1.306,6.779,1.186,13.296,1.776,20.12c0.522,6.044,2.671,11.91-1.666,16.916c-1.1,1.27-3.721,3.29-5.241,3.677
	c-3.347,0.852-2.209,0.554-5.101-2.477c-4.197-4.399-7.245-11.351-9.377-16.95c-9.022-23.703-4.414-51.16,12.113-70.459
	c2.965,3.457,5.577,7.211,7.803,11.184c2.913,5.201,2.787,5.945,0.762,11.214C501.415,893.67,502.015,902.213,503.799,911.468z
	 M462.119,1023.547c-3.604-3.602-17.913-14.382-18.321-19.042c-0.477-5.447,8.213-16.951,10.695-22.074
	c3.575,2.562,11.043,4.745,11.946,8.504c0.688,2.864-1.128,8.517-1.504,11.354C463.996,1009.375,463.058,1016.461,462.119,1023.547z
	 M435.733,997.159c-4.969-4.966-9.94-9.93-14.898-14.907c3.621-2.874,7.242-5.748,10.862-8.622
	c5.711-4.533,7.121-8.366,12.056-0.575c2.943,4.646,0.804,5.889-1.865,11.397C439.837,988.688,437.785,992.923,435.733,997.159z
	 M442.234,1111.62c-2.496,2.388-4.36,5.499-5.547,8.726c-7.456-6.284-14.911-12.569-22.367-18.853
	c-4.962-4.183-9.925-8.366-14.887-12.549c-5.25-4.425-6.406-3.317-3.048-9.864c3.3-6.434,3.261-4.823,9.812-2.571
	c6.364,2.187,12.728,4.374,19.092,6.561c4.441,1.526,12.394,2.581,16.093,5.531C446.479,1092.666,443.496,1105.052,442.234,1111.62z
	 M336.439,902.576c7.818-4.833,14.751-11.097,20.292-18.435c2.533,14.936,6.984,29.539,13.09,43.4
	c-3.882,1.252-15.24,6.164-18.409,4.157c-1.846-1.169-3.943-7.669-4.867-9.467C343.175,915.679,339.807,909.127,336.439,902.576z
	 M282.995,762.242c8.097,4.474,16.531,8.24,25.308,11.175c4.812,1.609,9.702,2.98,14.615,4.245
	c2.831,0.729,16.222,1.977,17.912,4.167c5.355,6.938-15.671,8.033-19.259,9.179c-11.674,3.727-22.44,10.133-31.264,18.644
	C281.911,795.311,279.826,778.436,282.995,762.242z M207.546,569.354c-3.742-7.213-13.821-17.512-2.985-23.218
	c7.589-3.997,9.508,4.321,12.631,9.521c2.75,4.579,5.665,9.076,8.77,13.421C219.865,568.293,213.622,568.472,207.546,569.354z
	 M261.874,407.719c25.172-25.17,65.551-20.388,87.865,5.986c-7.401,2.809-14.552,6.249-21.374,10.263
	c-3.474,2.044-5.806,4.307-9.119,3.827c-2.484-0.36-6.409-4.427-8.753-5.76c-6.681-3.798-13.877-6.642-21.365-8.384
	c-4.576-1.065-16.485-4.388-20.811-1.364c-8.671,6.064,1.839,32.071,5.22,39.132c1.536,3.208,3.291,6.316,5.241,9.291
	c3.458,5.275,3.509,4.084,1.998,9.135c-2.453,8.203-9.378,16.528-12.57,24.76c-13.79-7.576-21.857-26.79-22.993-41.678
	C243.941,436.266,250.05,419.554,261.874,407.719z M324.363,279.73c-0.435-4.281-1.166-8.792-0.718-13.102
	c4.927,3.306,19.174,14.526,25.704,10.956c8.631-4.718,8.738-29.189,8.405-37.379c-0.282-6.93-1.416-13.808-3.264-20.488
	c-2.476-8.95-4.832-8.633,2.934-13.798c9.503-6.32,18.966-19.784,27.014-6.445c26.229,43.473-12.062,99.122-61.359,93.928
	C325.316,289.236,324.827,284.251,324.363,279.73z M404.406,156.608c10.739-4.094,20.997-9.493,30.441-16.044
	c2.205,8.398,11.12,46.229,3.427,49.94c-5.299,2.556-19.497-1.022-25.364-1.948c-9.191-1.45-18.254-3.705-27.083-6.638
	c4.04-4.363,7.797-8.987,11.234-13.839C398.566,165.956,402.247,157.421,404.406,156.608z M437.011,285.271
	c2.724,4.153,5.449,8.306,8.173,12.46c0.825,1.257,4.277,4.92,4.284,6.531c0.011,2.248-4.852,5.608-6.729,7.664
	c-1.975,2.162-4.898,7.38-7.033,7.375c-1.438-0.004-4.389-3.163-5.579-4.021c-4.326-3.118-8.652-6.236-12.978-9.354
	C423.566,298.849,430.231,292.001,437.011,285.271z M502.522,385.539c1.44,3.072,4.136,3.65,5.998,5.923
	c3.129,0.419,3.696,2.029,1.702,4.83c-0.503,1.775-1.098,3.519-1.784,5.23c-2.844,7.464-6.937,14.406-12.137,20.477
	c-22.078-25.779-22.075-65.065,0.003-90.843c5.233,6.091,13.292,16.692,12.431,24.789
	C507.73,365.378,497.959,375.795,502.522,385.539z M534.67,475.476c5.64,5.64,10.462,12.093,14.328,19.068
	c-2.519,1.085-5.015,2.932-7.593,3.708c-5.347,1.61-1.413,2.984-6.436-0.363c-4.602-3.067-7.753-8.548-12.721-11.672
	c3.144-4.577,6.288-9.154,9.433-13.731C532.582,473.386,534.005,474.397,534.67,475.476z M633.897,497.157
	c-22.811,22.814-45.621,45.628-68.432,68.442c3.612-11.136,1.472-21.847,9.731-30.105c7.327-7.327,14.655-14.655,21.982-21.982
	c4.41-4.41,10.374-13.362,16.068-16.068C618.164,495.106,628.297,497.157,633.897,497.157z M600.346,705.541
	c-22.121-1.25-50.844-10.812-63.812-30.563c-1.456-2.218-3.852-6.705,1.447-8.3c0.554-0.167,1.794,0.917,2.367,0.943
	c4.36,0.204,10.588,4.219,14.609,5.821c23.94,9.539,47.879,19.078,71.819,28.617C618.223,704.588,609.263,705.779,600.346,705.541z
	 M555.854,722.978c5.038,16.181,5.145,33.716,0.277,49.95c-9.309-22.401-18.619-44.802-27.928-67.203
	c-2.171-5.223-4.341-10.447-6.512-15.67c-1.958-4.712-2.428-3.697,0.193-6.908c5.148-6.307,9.149,0.969,13.126,5.121
	C544.492,698.168,551.798,709.826,555.854,722.978z M538.38,771.966c-23.07-17.356-36.271-41.729-36.849-70.82
	c-0.042-2.112-1.105-8.893,0-10.469c0.632-0.902,7.296-2.424,8.522-1.369c2.417,2.078,3.914,9.417,5.122,12.326
	c10.429,25.095,20.858,50.19,31.287,75.285C543.682,775.424,540.975,773.76,538.38,771.966z M358.691,787.15
	c22.828-22.831,45.655-45.662,68.483-68.493c-3.611,11.14-1.504,21.879-9.765,30.14c-7.331,7.331-14.661,14.661-21.992,21.992
	c-4.412,4.412-10.378,13.369-16.075,16.075C374.424,789.2,364.292,787.15,358.691,787.15z M351.291,777.643
	c0-5.178-1.751-13.921,0.274-18.533c2.479-5.647,11.914-11.914,16.221-16.221c7.369-7.369,14.738-14.738,22.106-22.106
	c8.103-8.103,18.956-5.982,29.873-9.51c-22.825,22.828-45.649,45.656-68.474,68.484
	C351.291,779.052,351.291,778.347,351.291,777.643z M258.718,549.767c-6.531,6.815-12.228,14.414-17.237,22.405
	c-2.78-3.402-11.372-11.943-9.587-15.414c1.309-2.546,6.62-5.181,8.813-6.898c6.096-4.771,12.193-9.543,18.289-14.314
	C258.658,540.285,258.586,545.018,258.718,549.767z M269.095,545.855c-0.025-12.817,1.866-25.643,5.57-37.913
	c37.265,10.485,37.3,65.256,0.045,75.786C271.01,571.471,269.095,558.659,269.095,545.855z M261.491,502.78
	c3.88,2.513,2.458,1.539,2.098,5.823c-0.188,2.238-1.297,7.929-2.343,10.161c-1.38,2.944-0.267,1.206-2.024,3.32
	c-2.983,3.588-8.242,6.451-11.92,9.329c-7.365,5.764-14.73,11.529-22.095,17.293c-1.99-3.404-3.876-6.871-5.648-10.393
	c-2.17-4.314-3.518-5.141-1.396-8.355c2.51-3.801,11.938-7.595,15.673-9.942C243.033,514.235,252.255,508.497,261.491,502.78z
	 M313.761,545.841c0-21.855-14.688-41.611-35.677-47.784c3.219-8.232,7.29-16.137,12.12-23.538
	c10.16,9.844,22.87,16.937,36.618,20.303c2.251,0.551,12.836,1.089,14.008,2.577c0.661,0.84,0,4.69,0,5.788
	c0,14.864-0.056,29.729,0,44.593c0.035,9.208,3.474,18.988,3.085,27.802c0.369,1.303,0.738,2.607,1.106,3.91
	c-2.094,1.113-4.143,2.302-6.149,3.567c-3.004,1.895-5.905,3.959-8.679,6.176c-3.143,2.511-6.039,5.278-8.918,8.08
	c-8.943,8.7-17.652,17.653-26.475,26.475c-6.862-9.254-12.468-19.451-16.663-30.179
	C299.099,587.419,313.761,567.677,313.761,545.841z M335.21,304.017c2.915-0.222,14.139-3.943,15.645-2.885
	c0.631,0.443,0.556,2.116,1.038,2.724c2.744,3.465,3.936,10.333,5.516,14.481c3.197,8.395,6.395,16.789,9.592,25.184
	c-8.961-2.982-19.229-5.126-27.709-9.31c-5.259-2.595-4.082-1.659-4.082-7.587C335.21,319.088,335.21,311.552,335.21,304.017z
	 M437.802,215.214c-7.875-0.315-15.751-0.63-23.626-0.946c-2.657-0.106-8.909,0.848-11.385-0.456
	c-3.873-2.039-6.062-13.79-8.756-18.533c14.862,3.902,30.168,5.831,45.532,5.68C439.139,205.729,438.543,210.483,437.802,215.214z
	 M390.376,272.183c5.532,5.213,11.064,10.425,16.596,15.638c1.101,1.037,5.815,4.184,6.067,5.717
	c0.671,4.09-12.557,15.459-15.27,18.762c-3.434-6.144-6.867-12.288-10.301-18.432c-1.347-2.41-4.945-6.667-5.316-9.512
	C381.631,280.358,387.794,275.972,390.376,272.183z M373.291,289.946c3.936,7.043,7.873,14.087,11.809,21.13
	c1.309,2.343,5.144,6.837,5.336,9.548c0.317,4.493-10.501,15.962-13.183,20.419c-3.287-8.631-6.575-17.261-9.862-25.892
	c-1.699-4.46-4.721-9.6-5.449-14.306c-0.093-0.599-1.497-2.664-1.265-3.32C361.21,296.017,371.517,291.251,373.291,289.946z
	 M434.477,390.536c18.936,33.788-19.794,72.533-53.587,53.599C393.024,421.479,411.836,402.692,434.477,390.536z M426.241,383.198
	c-9.498,5.428-17.038,12.647-25.828,18.895c-8.076,5.74-24.621,4.073-34.868,6.643c0.261-3.843-0.032-16.121,2.778-18.407
	c0.734-0.597,3.121-0.221,4.009-0.497c6.238-1.939,14.085-1.747,20.553-2.549C395.314,386.98,425.925,382.196,426.241,383.198z
	 M423.906,372.891c-17.585,2.181-35.17,4.362-52.755,6.544c1.743-5.509,7.95-27.638,13.463-29c3.207-0.792,10.65,2.655,13.803,3.44
	c6.204,1.546,12.407,3.092,18.611,4.639C425.98,360.745,422.471,363.328,423.906,372.891z M357.072,351.231
	c4.131,1.388,8.265,2.765,12.405,4.126c-7.483,15.424-12.502,32.093-14.095,49.19c-3.426-3.137-12.926-9.402-13.341-13.004
	c-0.396-3.431,3.909-10.483,5.102-13.684C350.452,368.984,353.762,360.107,357.072,351.231z M361.482,420.701
	c8.501-2.616,17.283-4.331,26.137-5.163c-8.042,9.655-14.794,20.388-19.991,31.829c-2.556,5.627-4.753,11.429-6.54,17.346
	c-1.593,5.272-1.612,15.812-4.515,20.113c-1.809,2.68-3.768,2.628-5.607,0.149c-2.454-3.306-2.265-13.821-3.721-18.224
	c-3.787-11.453-10.212-22.01-18.602-30.674C338.8,429.458,349.892,424.262,361.482,420.701z M379.083,497.157
	c9.034,9.035,18.069,18.069,27.103,27.104c4.503,4.503,10.651,9.055,14.293,14.294c4.889,7.03,3.85,18.414,6.637,27.002
	c-22.803-22.8-45.606-45.6-68.409-68.4C365.5,497.157,372.292,497.157,379.083,497.157z M528.4,506.693
	c-14.737,11.363-26.04,27.12-32.106,44.703c-3.829-11.083-9.683-21.45-17.233-30.423c-3.339-3.969-9.515-7.801-12.168-12.092
	c-2.264-3.661-2.598-1.482,0.189-6c1.257-2.038,3.824-4.092,5.635-5.517C490.094,483.692,516.446,488.111,528.4,506.693z
	 M559.719,537.834c-1.51,14.011-3.661,26.761-10.579,39.304c-4.414,8.003-11.777,19.935-20.005,24.78
	c-0.149,0.088-2.076,2.528-2.56,2.565c0.109-0.008-9.27-5.906-9.234-5.807c-0.166-0.457,0.905-1.548,0.901-2.043
	c-0.03-3.862,4.615-10.468,6.159-13.971c10.537-23.9,21.073-47.801,31.61-71.701C558.662,519.642,559.925,528.758,559.719,537.834z
	 M599.954,578.767c9.372,0.19,18.286,0.876,27.317,3.609c-23.727,10.103-47.454,20.207-71.181,30.31
	c-4.139,1.763-9.647,5.448-14.124,6.014c-0.681,0.086-2.054,1.333-2.702,1.151c-2.388-0.672-4.812-7.436-4.185-9.068
	c2.648-6.899,16.629-15.597,22.09-19.018C569.972,583.743,584.854,579.236,599.954,578.767z M625.977,600.22
	c-16.519,23.785-43.347,36.48-71.969,36.69c-1.92,0.014-8.273,1.187-9.664,0c-1.379-1.177-1.36-6.558-0.45-7.661
	c2.05-2.485,9.975-4.247,12.821-5.459c24.736-10.533,49.473-21.065,74.209-31.598C629.42,594.946,627.783,597.652,625.977,600.22z
	 M510.828,677.143c-40.168,15.259-72.223-38.833-37.347-65.183c17.542-13.253,43.228-8.399,54.917,10.117
	C540.708,641.577,532.05,668.325,510.828,677.143z M454.2,771.98c-2.495,1.871-5.321,3.464-8.063,4.938
	c10.426-25.097,20.852-50.193,31.278-75.29c1.228-2.956,2.623-9.991,5.037-12.125c1.377-1.218,7.839-0.405,8.618,0.93
	c1.097,1.883,0.039,8.583,0,10.713C490.547,729.324,477.636,755.797,454.2,771.98z M436.802,636.91
	c-31.109,0.005-60.212-17.415-75.113-44.681c17.951,7.689,35.903,15.378,53.854,23.066c9.695,4.152,19.389,8.305,29.084,12.457
	c0.915,0.392,4.372,1.226,4.949,2.12c0.408,0.63-2.048,7.405-1.569,7.038c-0.375,0.287-3.26-0.03-3.377,0
	C442.332,637.505,439.185,636.91,436.802,636.91z M340.376,616.203c-4.583-3.149-9.167-6.298-13.75-9.447
	c6.621-6.734,13.759-12.699,22.053-17.293c1.085,2.514,2.93,5.005,3.707,7.577c1.613,5.34,2.98,1.403-0.358,6.43
	C348.971,608.076,343.495,611.239,340.376,616.203z M436.723,561.332c-4.715-15.193-5.114-31.622-1.092-47.015
	c8.981,21.506,17.963,43.012,26.944,64.517c1.623,3.887,10.202,17.535,9.094,21.775c-0.135,0.518-5.363,3.645-5.937,3.556
	c-0.93-0.145-1.941-2.177-2.72-2.719c-2.129-1.483-4.116-4.026-5.924-5.924C447.816,585.793,440.723,574.196,436.723,561.332z
	 M454.38,512.462c23.758,16.505,36.475,43.37,36.69,71.974c0.033,4.436,0.71,7.686-1.679,9.926c-1.55,1.454-7.263,2.001-8.586,0.975
	c-2.433-1.886-4.201-10.059-5.345-12.799c-10.646-25.493-21.293-50.985-31.939-76.478
	C447.288,507.929,450.932,510.052,454.38,512.462z M392.197,578.75c25.013,1.69,44.8,11.457,62.38,29.075
	c3.673,3.681,5.199,5.175,0.302,9.418c-6.324,5.479,0.855,2.017-3.021,2.223c-3.573,0.19-10.665-4.568-13.849-5.931
	c-24.24-10.382-48.48-20.763-72.72-31.145C373.984,579.754,383.113,578.516,392.197,578.75z M418.569,572.597
	c-6.917-2.147-18.103-1.313-24.053-4.475c-2.052-1.091-4.064-4.064-5.69-5.69c-7.261-7.261-14.521-14.521-21.782-21.782
	c-4.103-4.103-13.126-10.095-15.479-15.479c-2.239-5.122-0.274-14.895-0.274-20.635c11.671,11.669,23.341,23.337,35.012,35.006
	c7.686,7.684,15.371,15.369,23.057,23.053c2.54,2.54,5.399,4.98,7.725,7.724C417.889,571.267,421.275,573.436,418.569,572.597z
	 M380.359,568.758c-8.81,0.892-17.503,3.023-25.731,6.297c-3.355-11.668-3.338-23.386-3.338-35.366
	C360.98,549.38,370.67,559.069,380.359,568.758z M432.889,746.378c1.282-13.924,3.741-26.796,10.57-39.205
	c4.438-8.064,11.758-19.87,20-24.796c0.159-0.095,2.068-2.518,2.56-2.56c-0.008,0.001,7.14,4.769,7.143,4.779
	c0.162,0.491-0.859,1.534-0.855,2.057c0.033,3.949-4.342,10.452-5.845,14.069c-9.998,24.068-19.997,48.136-29.995,72.203
	C433.894,764.341,432.671,755.339,432.889,746.378z M507.456,595.165c-4.679-1.102-4.547-0.189-5.926-3.756
	c-0.782-2.023-0.036-6.122,0-8.273c0.169-10.21,1.649-20.21,5.175-29.829c7.105-19.382,21.238-35.731,39.328-45.649
	C533.175,536.827,520.316,565.996,507.456,595.165z M491.074,479.086c-3.325,0.352-9.382,2.967-11.832,1.598
	c-1.76-0.983-3.934-5.727-5.085-7.401c-1.918-2.791-5.768-6.406-4.88-9.161c1.227-3.807,9.211-9.216,12.019-12.026
	c3.259-3.261,6.519-6.523,9.778-9.784C491.074,454.57,491.074,466.828,491.074,479.086z M457.93,475.476
	c0.658-1.079,2.092-2.093,2.989-2.991c3.146,4.579,6.292,9.159,9.438,13.738c-4.983,3.135-8.104,8.6-12.72,11.67
	c-3.825,2.543-0.41,2.026-4.956,1.166c-2.525-0.478-6.659-3.473-9.08-4.516C447.466,487.569,452.288,481.116,457.93,475.476z
	 M429.196,500.488c-3.264,8.219-5.394,16.9-6.29,25.699c-9.677-9.677-19.353-19.354-29.03-29.03
	C405.844,497.157,417.541,497.125,429.196,500.488z M340.63,486.479c-34.207-2.646-61.587-30.026-64.233-64.234
	C310.604,424.891,337.984,452.272,340.63,486.479z M319.101,614.281c4.226,2.904,11.679,6.05,14.693,10.094
	c2.029,2.723,2.007,4.803,0.004,8.71c-3.375,6.583,1.463,2.394-3.502,3.819c-9.606,2.757-23.718,0-33.819,0
	C304.019,629.363,311.56,621.822,319.101,614.281z M347.063,658.5c-5.79-14.124-4.746-37.802,10.883-46.378
	c4.849-2.661,5.86,1.778,9.639,5.721c3.165,3.302,6.576,6.39,10.178,9.21c8.346,6.535,17.789,11.659,27.81,15.109
	c-12.238,4.2-23.561,10.859-33.16,19.54c-1.85,1.673-9.772,12.441-11.585,12.521C356.049,674.435,348.652,661.869,347.063,658.5z
	 M397.053,657.156c12.32-6.502,25.881-9.528,39.749-9.785c2.182-0.04,6.756-0.801,8.746,0c2.087,0.84,6.248,3.368,3.931,6.91
	c-0.851,1.302-5.665,2.438-7.025,3.023c-5.533,2.381-11.066,4.761-16.598,7.142c-21.402,9.208-42.803,18.417-64.205,27.625
	C369.691,677.24,382.128,665.01,397.053,657.156z M453.227,664.055c1.53,3,5.419,6.575,4.571,9.179
	c-0.604,1.855-4.677,4.714-6.158,6.159c-6.635,6.471-13.745,12.119-21.987,16.431c-19.692,10.302-43.116,12.528-64.389,6.079
	C394.585,689.287,423.906,676.671,453.227,664.055z M422.908,758.091c0.893,8.808,3.023,17.499,6.291,25.727
	c-11.657,3.364-23.378,3.331-35.349,3.331C403.536,777.464,413.222,767.777,422.908,758.091z M455.611,783.535
	c6.029,9.213,15.198,16.235,25.685,19.601c7.727,2.48,9.766-0.191,9.766,7.824c0,10.334,0,20.668,0,31.003
	c-16.114-16.115-36.303-32.073-47.469-52.215C447.738,787.962,451.758,785.885,455.611,783.535z M496.3,795.039
	c-7.428,0-14.81-2.174-21.015-6.263c-2.683-1.768-6.623-4.409-8.176-7.331c-2.846-5.355-2.474-3.87,2.378-8.199
	c12.245-10.927,21.499-24.946,26.813-40.468c5.314,15.52,14.57,29.54,26.814,40.467c3.999,3.569,5.106,2.654,3.399,6.982
	c-1.288,3.265-6.392,6.698-9.199,8.548C511.104,792.868,503.733,795.039,496.3,795.039z M542.247,657.114
	c1.028-3.164,0.82-8.525,3.237-9.743c1.725-0.869,6.48-0.016,8.524,0c10.095,0.079,19.928,1.347,29.514,4.623
	c20.314,6.943,37.596,21.628,47.703,40.574C601.566,680.75,571.907,668.932,542.247,657.114z M631.774,674.227
	c-11.419-14.787-27.082-26.002-44.749-32.065c11.109-3.825,21.477-9.708,30.462-17.277c4.081-3.438,7.691-9.412,12.077-12.158
	c3.892-2.436,2.788-2.762,7.023,1.046c1.879,1.69,3.553,3.576,5.064,5.598C654.65,636.767,650.005,662.433,631.774,674.227z
	 M656.833,625.731c3.936-2.704,7.871-5.408,11.807-8.111c4.356-2.992,3.227-3.19,6.832-1.365
	c7.455,3.773,14.668,14.668,20.664,20.663c-7.186,0-14.371,0-21.557,0c-3.587,0-8.827,0.997-12.277,0
	c-0.695-0.201-2.214,0.411-2.792,0C658.523,636.216,657.435,627.424,656.833,625.731z M652.218,616.208
	c-3.133-4.982-8.597-8.107-11.662-12.724c-2.541-3.826-2.026-0.407-1.16-4.951c0.481-2.524,3.479-6.65,4.524-9.07
	c8.298,4.596,15.423,10.569,22.057,17.294C661.389,609.907,656.804,613.058,652.218,616.208z M641.307,551.424
	c0,7.976-1.135,15.967-3.339,23.632c-8.222-3.272-16.909-5.402-25.714-6.295c9.684-9.684,19.368-19.369,29.052-29.053
	C641.307,543.613,641.307,547.518,641.307,551.424z M641.307,524.914c-9.04,9.041-18.081,18.082-27.121,27.122
	c-4.506,4.507-9.061,10.658-14.303,14.304c-7.033,4.892-18.433,3.873-27.025,6.661c22.817-22.82,45.633-45.64,68.45-68.459
	C641.307,511.332,641.307,518.123,641.307,524.914z M569.693,526.203c-0.895-8.805-3.026-17.491-6.293-25.715
	c11.653-3.363,23.372-3.33,35.339-3.33C589.057,506.839,579.375,516.521,569.693,526.203z M512.727,481.603
	c-5.168-1.836-9.451-0.566-11.191-4.859c-1.274-3.144,0-9.493,0-12.877c0-7.182,0-14.363,0-21.545
	c5.998,6.001,16.876,13.2,20.652,20.665c1.774,3.507,1.795,1.786-0.828,6.049C518.709,473.344,515.592,477.432,512.727,481.603z
	 M489.032,429.554c-14.421,14.43-30.019,28.331-43.382,43.777c-3.802,4.395-6.404,10.296-10.299,14.449
	c-3.113,3.319-2.375,2.768-7.585,1.527c-3.286-0.783-6.605-1.409-9.957-1.838c-7.033-0.9-14.097-0.774-21.167-0.774
	c-9.934,0-19.868,0-29.803,0c1.679-11.398,4.829-22.602,9.437-33.165c42.611,23.269,90.752-25.129,67.601-67.575
	c8.11-3.553,16.593-6.27,25.258-8.088C469.439,396.807,476.526,415.317,489.032,429.554z M424.218,349.526
	c-11.494-2.865-22.989-5.73-34.483-8.595c4.984-7.698,10.852-18.371,18.008-24.213c3.702-3.022,1.022-2.166,4.005-1.79
	c1.678,0.212,5.065,3.65,6.32,4.555c2.966,2.138,10.104,5.387,11.894,8.572C431.813,331.35,425.104,344.485,424.218,349.526z
	 M417.575,283.441c-3.894-3.669-7.787-7.338-11.681-11.007c-2.267-2.136-6.477-4.856-8.052-7.588
	c-1.978-3.429-1.875-1.264-0.048-6.544c3.436-9.933,3.729-7.752,13.287-5.459c5.527,1.326,11.055,2.652,16.582,3.979
	C424.664,265.825,421.268,274.7,417.575,283.441z M432.182,241.86c-1.658,6.293-0.471,4.006-5.046,4.076
	c-3.773,0.058-8.8-2.111-12.501-2.999c-2.52-0.605-8.405-0.814-10.248-2.459c-3.198-2.852-0.911-10.967-1.359-16.185
	c10.974,0.439,21.949,0.878,32.923,1.318C434.854,231.063,433.598,236.482,432.182,241.86z M407.943,114.441
	c-3.649,24.819-15.969,47.209-33.787,64.692c-11.703-11.881-13.231-30.476-5.934-45.071
	C374.234,122.037,394.246,104.979,407.943,114.441z M347.152,347.89c-4.889,13.113-9.779,26.226-14.669,39.338
	c-5.005-2.443-15.582-3.363-17.405-7.395c-1.37-3.029,0.669-11.438,0.857-14.666c0.527-9.021,1.055-18.042,1.582-27.063
	C327.435,341.247,337.296,344.562,347.152,347.89z M239.567,474.196c-12.261,3.049-24.521,6.098-36.782,9.147
	c-0.569-4.918-5.113-27.365-1.642-30.323c1.995-1.7,11.858-0.409,14.431-0.498c4.506-0.155,12.255-1.945,16.569-0.571
	c4.206,1.34,0.397-3.352,2.805,3.713C236.986,461.645,237.12,468.159,239.567,474.196z M244.382,483.779
	c2.553,4.223,5.577,8.157,8.981,11.729c-13.804,8.553-27.613,17.107-41.26,25.908c-1.655-4.339-10.361-24.244-7.333-27.786
	c1.566-1.832,10.06-2.502,12.404-3.085C226.243,488.29,235.312,486.035,244.382,483.779z M244.384,588.023
	c4.424-8.346,9.547-16.348,15.47-23.713c1.413,10.702,4.076,21.267,7.872,31.372c2.168,5.769,4.718,11.402,7.621,16.839
	c2.567,4.807,9.916,12.186,10.89,17.23c0.586,3.036-0.813,4.745-3.919,3.964c-4.5-1.133-10.383-7.577-14.806-9.848
	c-10.783-5.538-22.773-8.585-34.895-8.867C235.642,605.672,239.795,596.674,244.384,588.023z M333.245,647.366
	c0.353,3.326,2.968,9.381,1.598,11.832c-0.984,1.761-5.73,3.937-7.405,5.088c-2.792,1.918-6.411,5.773-9.166,4.884
	c-3.807-1.228-9.214-9.214-12.023-12.023c-3.261-3.261-6.521-6.521-9.782-9.782C308.726,647.366,320.986,647.366,333.245,647.366z
	 M340.382,668.086c3.128,4.975,8.578,8.106,11.639,12.719c2.53,3.813,2.015,0.422,1.175,4.946c-0.468,2.52-3.464,6.683-4.502,9.096
	c-8.3-4.602-15.423-10.587-22.06-17.315C331.216,674.384,335.799,671.235,340.382,668.086z M351.291,732.883
	c0-7.974,1.135-15.965,3.338-23.628c8.225,3.265,16.912,5.389,25.716,6.282c-9.685,9.685-19.369,19.369-29.054,29.054
	C351.291,740.688,351.291,736.785,351.291,732.883z M351.083,797.611c19.46,0,39.163,0.77,58.605-0.086
	c6.715-0.296,13.488-2.807,20.05-2.995c4.681-0.134,3.63-1.283,6.535,3.511c1.533,2.529,3.168,4.994,4.929,7.371
	c3.83,5.17,8.272,9.731,12.792,14.275c7.967,8.01,15.977,15.978,23.965,23.967c-9.255,6.865-19.455,12.474-30.185,16.67
	c-13.698-46.447-81.898-46.424-95.562,0.035c-8.269-3.229-16.211-7.313-23.643-12.168
	C341.705,834.589,349.837,816.494,351.083,797.611z M423.269,899.389c-6.626,5.139-13.628,9.777-20.927,13.901
	c-2.536,1.433-19.62,12.297-22.635,10.746c-3.938-2.026-6.901-17.88-8.078-21.861c-2.563-8.663-4.451-17.532-5.602-26.493
	c5.195,1.283,10.474,2.272,15.781,2.956c5.381,0.695,12.954-0.099,17.367,2.384C407.638,885.784,414.725,894.227,423.269,899.389z
	 M362.099,863.776c10.487-37.277,65.281-37.295,75.794-0.024C413.299,871.178,386.696,871.203,362.099,863.776z M364.312,940.063
	c2.246-0.602,4.481-1.243,6.705-1.922c2.829-2.102,4.495-1.382,4.997,2.158c2.342,2.293,6.233,9.448,7.328,12.563
	c1.732,4.926,1.599,3.938-0.72,9.179c-3.374,7.625-6.748,15.251-10.122,22.876c-3.321-2.347-16.057-6.881-16.885-9.435
	c-0.76-2.346,2.193-8.931,2.77-11.281C360.361,956.154,362.337,948.109,364.312,940.063z M392.361,965.889
	c2.299,3.042,15.785,15.08,15.832,18.433c0.013,0.922-4.006,4.032-4.696,4.726c-4.472,4.501-8.945,9.003-13.417,13.504
	c-1.862-2.637-8.733-8.628-8.877-11.448c-0.116-2.257,2.793-6.312,3.719-8.405C387.402,977.096,389.881,971.492,392.361,965.889z
	 M395.651,1011.787c5.869-5.907,11.738-11.814,17.608-17.721c1.654,6.442,6.394,13.173,9.203,19.229
	c-4.778,1.69-9.556,3.38-14.334,5.069C398.294,1021.841,400.696,1021.654,395.651,1011.787z M402.048,1064.02
	c0.515-2.082,0.753-10.494,2.053-11.509c0.658-0.514,3.045,0.161,3.858,0c5.163-1.024,11.67,0,16.924,0c2.336,0,9.96-1.343,11.924,0
	c4.109,2.81,5.189,20.416,5.858,25.468C429.126,1073.326,415.587,1068.673,402.048,1064.02z M403.983,1042.049
	c-0.323-5.034-2.377-8.314,0.357-11.248c1.981-2.126,8.634-3.053,11.293-3.994c2.118-0.749,7.877-4.058,10.249-3.624
	c3.481,0.636,6.866,15.156,8.115,18.867C423.993,1042.049,413.988,1042.049,403.983,1042.049z M413.493,974.725
	c-4.845-5.162-9.4-10.603-13.625-16.283c4.76-1.527,9.52-3.055,14.28-4.582c2.4-0.77,11.801-5.501,14.28-4.582
	c1.557,0.577,4.573,9.28,4.116,10.327c-0.704,1.611-4.599,3.651-5.953,4.725C422.224,967.794,417.858,971.26,413.493,974.725z
	 M425.209,939.323c-6.961,2.234-13.922,4.467-20.884,6.701c-2.189,0.702-7.799,3.627-10.06,3.228
	c-3.475-0.614-8.26-12.34-10.035-15.767c13.997-5.523,27.339-12.732,39.589-21.472C422.528,921.092,423.014,930.421,425.209,939.323
	z M435.383,894.241c-7.705-4.886-15.404-9.151-22.485-15.015c12.551-1.153,24.983-4.001,36.783-8.431
	c5.797-2.176,11.458-4.727,16.922-7.64c4.831-2.575,12.246-9.957,17.312-10.934c3.063-0.59,4.727,0.796,3.946,3.917
	c-1.138,4.545-7.645,10.502-9.932,14.975c-5.575,10.904-8.593,23.051-8.79,35.298C457.401,903.938,445.998,899.826,435.383,894.241z
	 M501.523,805.196c9.321-0.986,18.251-4.707,25.509-10.629c2.635-2.149,6.229-8.473,8.991-9.661
	c3.133-1.347,8.892,3.079,12.983,4.841c-11.168,20.151-31.361,36.108-47.483,52.231
	C501.523,829.718,501.523,817.457,501.523,805.196z M569.691,758.104c9.681,9.682,19.363,19.364,29.044,29.046
	c-11.967,0-23.683,0.031-35.336-3.332C566.667,775.594,568.797,766.908,569.691,758.104z M572.8,711.261
	c8.5,2.752,19.995,1.738,26.939,6.568c5.613,3.904,10.458,10.458,15.277,15.276c6.005,6.004,12.009,12.009,18.014,18.013
	c2.229,2.229,7.078,5.493,8.28,8.436c0.681,1.668,1.065,17.732,0,18.486c-1.973,1.396-5.237-3.515-6.826-5.104
	c-11.337-11.335-22.673-22.67-34.01-34.005C591.249,729.707,582.024,720.484,572.8,711.261z M612.241,715.537
	c8.809-0.892,17.501-3.017,25.73-6.284c3.352,11.664,3.338,23.375,3.338,35.351C631.62,734.915,621.931,725.226,612.241,715.537z
	 M643.907,694.847c-1.085-2.52-2.93-5.027-3.699-7.607c-1.59-5.339-2.964-1.407,0.377-6.428c3.06-4.6,8.527-7.756,11.644-12.718
	c4.579,3.146,9.158,6.293,13.737,9.439C659.343,684.269,652.203,690.249,643.907,694.847z M673.49,670.009
	c-4.224-2.902-11.671-6.047-14.683-10.089c-2.03-2.723-2.003-4.81-0.003-8.717c3.374-6.592-1.466-2.398,3.501-3.824
	c9.605-2.757,23.716,0,33.816,0C688.577,654.922,681.034,662.465,673.49,670.009z M708.91,634.898
	c-13.652-13.652-26.91-27.911-41.103-41.01c-4.36-4.023-9.068-7.659-14.081-10.832c-3.167-2.004-5.089-2.214-5.596-5.522
	c-0.409-2.673,1.769-7.008,2.263-9.89c1.202-7.012,1.354-14.034,1.376-21.115c0.035-11.296,0-22.593,0-33.889
	c11.392,1.69,22.564,4.933,33.113,9.548c-23.085,42.427,25.007,90.782,67.607,67.542c3.822,8.725,6.674,17.882,8.482,27.235
	C742.123,615.853,723.147,622.56,708.91,634.898z M725.063,549.568c9.071,9.049,16.79,19.458,22.848,30.748
	c-33.78,18.941-72.528-19.766-53.618-53.565C705.584,532.802,716.005,540.51,725.063,549.568z M753.688,569.344
	c-5.195-8.641-13.681-15.785-18.498-24.322c-2.318-4.109-1.593-10.397-2.161-15.353c-0.685-5.976-1.737-11.911-3.178-17.753
	c8.471,1.144,47.415,6.786,48.202,14.525c0.568,5.582-7.283,17.159-10.062,22.12C763.875,555.908,759.091,562.882,753.688,569.344z
	 M634.697,442.25c8.282,5.972,17.204-5.21,24.918,2.895c3.933,4.133,4.424,9.916,9.204,13.863c4.195,3.464,9.617,6.071,14.847,7.538
	c4.074,1.143,11.232-0.794,14.347,0.975c4.338,2.464,8.693,13.889,10.988,18.334c7.642,14.805,12.363,31.051,13.924,47.635
	c-11.145-9.269-23.749-16.807-37.171-22.277c-6.874-2.801-13.955-5.058-21.183-6.744c-2.255-0.526-11.549-0.987-12.803-2.379
	c-0.633-0.703,0.127-4.147,0-5.082c-1.273-9.373-1.465-10.313-11.618-10.313c-12.623,0-25.246,0-37.869,0
	c-8.467,0-17.045-0.336-25.476,0.56c-4.038,0.429-8.03,1.111-11.981,2.052c-5.544,1.321-5.541,1.838-8.499-3.043
	c-4.025-6.642-8.863-12.611-14.257-18.183c-8.915-9.209-18.133-18.144-27.193-27.209c5.928-3.604,12.546-5.801,19.169-7.732
	c2.995-0.873,6.023-1.636,9.032-2.458c5.196-1.421,4.504-1.786,7.521,1.171c4.316,4.232,6.566,10.73,11.265,15.091
	c4.162,3.863,8.972,7.045,14.217,9.231c11.117,4.633,23.528,4.352,34.701-0.022c5.745-2.249,11.053-5.542,15.594-9.727
	C629.497,443.549,630.483,439.226,634.697,442.25z M556.477,415.883c4.497,2.666,8.24,6.548,13.443,7.915
	c6.28,1.65,12.266-2.057,18.315,0.246c9.626,3.665,16.038,14.246,25.911,18.639c-11.383,7.456-26.231,8.722-38.179,1.887
	c-5.132-2.936-9.547-7.13-12.9-11.987C561.299,430.021,557.288,416.366,556.477,415.883z M536.627,400.249
	c2.59,2.312,7.613,4.98,8.951,7.874c0.227,0.491,0.201,7.548,0.149,7.787c-0.864,3.942,0.887,2.171-3.454,4.153
	c-5.538,2.528-12.292,3.179-18.096,5.173c-3.898,1.339-14.03,8.249-17.184,7.748c-5.522-0.877-1.432-5.763-0.07-7.537
	c3.578-4.663,6.61-9.684,9.091-15.012c1.893-4.065,3.644-13.698,6.818-14.732C526.423,394.533,534.108,398.02,536.627,400.249z
	 M494.42,300.585c5.61,0.356,9.119,3.304,12.264,7.593c1.531,2.088,0.781,4.1,3.444,6.064c2.214,1.634,4.635,0.912,6.996,1.607
	c18.423,5.421,0.972,15.014-2.656,23.63c-3.026-5.822-10.823-21.064-18.168-21.074c-7.505-0.011-15.669,16.139-18.579,21.912
	c-2.117,4.199-3.858,8.604-5.211,13.107c-0.815,2.714-1.077,11.944-2.824,13.676c-2.743,2.72-13.398,3.174-17.343,4.46
	c-5.685,1.853-11.255,4.06-16.655,6.63c-5.391-19.972-0.083-41.797,13.286-57.472c5.567-6.527,12.673-12.098,20.354-15.816
	c4.052-1.961,8.273-3.439,12.65-4.483C486.874,299.25,489.243,300.26,494.42,300.585z M469.467,286.396
	c2.367,1.435,4.6,2.887,6.663,4.742c-3.685,1.061-15.919,8.251-18.126,7.066c-2.229-1.196-5.138-7.833-6.454-9.84
	c-1.473-2.246-6.155-7.21-6.454-9.84c-0.335-2.944,8.323-9.226,10.822-11.627c1.801,3.008,0.945,6.141,2.856,9.785
	C461.071,281.066,465.362,283.907,469.467,286.396z M453.906,256.691c-7.003-0.446-17.273,14.251-21.774,18.685
	c4.733-12.269,8.775-24.765,11.838-37.557C447.056,244.079,452.006,249.904,453.906,256.691z M471.998,204.901
	c6.152,6.959,13.343,16.733,1.413,22.403c-9.8,4.657-16.318-7.909-26.068-5.582c0.784-4.422,0.027-18.223,2.777-21.192
	c1.055-1.139,11.243-1.422,12.475-1.286c1.397-0.208,2.795-0.417,4.192-0.625C468.428,200.793,470.165,202.887,471.998,204.901z
	 M482.23,159.104c-2.801,8.052-5.674,4.784-12.066,7.85c-7.455,3.575-10.075,14.326-8.249,21.82
	c-3.711,0.531-7.446,0.951-11.184,1.241c0.479-14.912-0.783-29.876-3.943-44.463c10.838,6.826,23.483,10.749,36.284,11.233
	C482.791,157.558,482.51,158.331,482.23,159.104z M469.056,108.269c15.062-0.26,36.566,12.539,28.694,29.769
	c-8.676,18.989-40.629,3.17-51.833-6.001c4.725-4.025,9.192-8.369,13.343-12.984C461.725,116.313,465.846,108.325,469.056,108.269z
	 M417.961,117.847c3.451-0.184,4.89-2.463,7.89-3.05c6.384-1.25-0.295-0.892,4.874,1.571c7.603,3.624,10.846,2.634,18.388-1.856
	c-10.829,11.426-23.738,20.853-37.906,27.712C414.33,134.375,416.584,126.18,417.961,117.847z M388.165,91.586
	c2.84,3.392,5.275,7.121,7.955,10.638c-38.677,4.917-56.724,55.802-29.669,83.931c-6.18,5.236-12.786,9.976-19.675,14.234
	c-6.777-12.753-16.52-24.067-28.606-32.05c23.042-22.234,31.41-50.084,28.264-81.566c8.2-0.098,16.295-1.689,24.064-4.262
	c5.528-1.83,4.878-1.615,9.514,1.044C383.059,85.302,385.941,88.93,388.165,91.586z M360.769,67.4
	c1.891,1.879,3.86,3.672,5.906,5.381c-5.04,1.645-12.636,4.263-18.086,3.509c-4.336-0.6-2.593,0.284-4.088-3.768
	c-1.263-3.424-1.499-8.365-2.236-11.951C349.975,59.944,355.279,61.892,360.769,67.4z M316.622,67
	c2.366-3.858,6.762-5.579,11.382-5.032c4.586,0.543,2.028-1.897,4.527,3.207c1.335,2.726,1.346,7.103,1.826,10.034
	C332.304,74.779,315.068,69.524,316.622,67z M298.472,100.518c-4.567,0.171-2.972-1.495-3.966-5.256
	c-1.053-3.987-7.304-9.086-7.589-12.252c-0.869-9.647,15.197-5.96,20.401-7.767C307.142,80.365,305.936,100.267,298.472,100.518z
	 M299.864,149.098c2.132-5.533,13.861-6.627,18.471-9.814c6.109-4.223,8.708-9.979,6.742-17.321
	c-0.946-3.533-3.06-6.716-5.313-9.547c-1.35-1.696-9.045-7.028-9.309-8.587c-0.265-1.572,4.059-8.28,4.657-10.234
	c1.309-4.279,1.995-8.756,2.369-13.205c4.879,2.336,16.368,3.797,18.547,7.311c2.142,3.454,0.816,13.231,0.668,17.282
	c-0.367,10.039-2.308,19.939-6.394,29.144c-3.757,8.463-10.767,21.254-18.91,26.225c-3.271,1.997-5.463,2.561-8.791-1.356
	C300.796,156.869,298.894,151.61,299.864,149.098z M337.839,227.677c-2.534-0.017-9.42-0.254-10.473-2.338
	c-0.682-1.349,1.182-6.441,0.423-8.68c-0.89-2.624-2.344-4.775-4.973-5.947c-2.8-1.248-4.443,1.034-7.422-0.236
	c-1.959-0.835-4.829-4.553-5.974-6.09c-3.816-5.121-4.127-9.502-4.48-15.656c-0.108-1.876-1.249-5.223-0.633-6.992
	c0.383-1.101,4.481-5.968,5.836-6.085c3.82-0.328,12.748,9.794,15.191,12.409c10.463,11.201,17.526,25.49,20.493,40.496
	C343.297,227.711,340.471,227.693,337.839,227.677z M330.432,257.703c5.668-3.679,11.828-6.711,16.856-11.305
	c-0.24,6.657-1.368,13.35-3.55,19.653C341.532,264.958,329.61,258.236,330.432,257.703z M302.431,320.141
	c1.398-4.998,6.829-15.493,12.183-17.48c0.626-0.232,9.894,1.22,10.135,1.512c0.383,0.464-0.139,2.549,0,3.088
	c1.673,6.497,0,15.393,0,22.165c-7.624-2.454-15.281-4.806-22.978-7.023C301.991,321.649,302.211,320.895,302.431,320.141z
	 M280.496,342.081c3.277-5.788,21.798-14.181,26.729-7.165c0.952,1.355-0.417,7.125-0.513,8.773
	c-0.355,6.074-0.711,12.147-1.066,18.221c-0.258,4.416,0.826,11.982-0.938,16.037c-0.219,0.504,0.244,2.082-0.145,2.47
	c-0.589,0.588-15.557,1.554-15.965,1.438c-3.519-0.998-3.241-4.745-4.383-9.342C281.944,363.379,275.598,350.722,280.496,342.081z
	 M253.157,382.563c7.902-4.456,14.191-9.59,18.333-17.864c1.3,5.23,3.617,10.93,4.043,16.269c0.293,3.669,1.246,2.776-0.45,5.215
	c-2.257,3.244-12.76,7.23-16.11,10.038c-2.905-3.996-5.811-7.992-8.716-11.987C251.223,383.677,252.19,383.12,253.157,382.563z
	 M238.096,399.981c1.336-2.936,2.678-5.929,4.357-8.692c2.203,3.029,7.855,8.097,8.469,11.647c0.373,2.162-4.331,7.911-6.285,9.871
	c-3.087,3.096-0.712,2.777-5.173,1.97c-2.237-0.405-5.342-2.196-7.502-3.034C234.384,408.032,236.263,404.005,238.096,399.981z
	 M203.437,426.26c5.498-1.395,11.013-2.191,16.474-3.799c2.56-0.754,3.278-1.985,5.926-1.841c2.163,0.118,4.698,1.833,6.753,2.653
	c3.369,1.346,4.794,1.185,5.291,4.29c0.249,1.558-1.964,8.609-2.395,9.824c-1.737,4.901,0.461,2.756-3.065,4.085
	c-4.637,1.749-12.764,0.44-17.731,0.611c-4.634,0.16-9.267,0.32-13.901,0.479C200.881,438.476,199.38,427.289,203.437,426.26z
	 M188.14,509.092c-1.885-7.703-2.749-13.123-11.985-14.344c-5.839-0.772-8.321,0.519-8.003-6.683
	c0.395-8.929,5.816-17.905-3.708-24.48c-4.312-2.977-11.69-1.487-15.262-5.205c-4.953-5.154,0.555-9.676,3.966-13.892
	c4.938-6.105,8.495-12.761,12.916-19.229c3.711-5.429,4.401-7.325,8.823-3.545c5.366,4.587,7.127,10.436,15.884,8.876
	c-1.796,35.7,0.931,71.482,15.687,104.475c-7.292,0.992-5.365-0.491-9.096-7.379C194.084,521.633,189.797,515.881,188.14,509.092z
	 M172.741,558.883c3.104,2.879,3.698,5.523,8.632,6.269c2.706,0.409,6.502-2.064,8.54-1.608c2.927,0.656,4.806,4.661,6.934,8.124
	c-2.986,0.869-15.526,8.003-17.496,7.364c-0.9-0.292-2.826-3.561-3.332-4.198c-3.174-3.998-6.347-7.997-9.521-11.995
	C168.341,561.498,170.55,559.638,172.741,558.883z M157.223,567.978c5.273,6.644,19.952,17.318,6.643,22.683
	c-5.206,2.099-16.927-6.345-22.577-9.083C142.783,580.084,155.441,565.736,157.223,567.978z M107.99,577.013
	c-2.484-0.386-11.278-1.053-12.96-3.428c4.521-2.294,9.211-0.495,13.912-1.153c4.82-0.675,6.024-2.695,9.62-5.289
	c4.503-3.248-0.924-1.487,5.583-2.79c5.407-1.083,12.35,0.505,17.605,1.968c-8.77,8.77-17.54,17.54-26.31,26.31
	C112.565,587.38,116.86,578.394,107.99,577.013z M151.438,604.036c-8.123,4.062-20.362-0.783-28.057-4.549
	c2.412-2.412,5.941-7.807,9.03-9.03c2.403-0.951,2.623-0.21,5.712,1.212c4.219,1.942,9.113,3.79,13.028,6.313
	C155.474,600.768,157.996,600.76,151.438,604.036z M137.099,654.012c-10.054-1.735-21.32-5.488-13.864-18.213
	c5.299,3.476,8.371,2.857,14.106,3.837c4.418,0.755,3.275-0.348,4.998,5.375c1.087,3.609,2.233,7.201,3.477,10.759
	C142.946,655.032,140.017,654.515,137.099,654.012z M212.782,674.751c-15.585,6.824-27.173,14.218-41.602,0.546
	c-5.223-4.949-10.488-10.14-13.203-16.797c-1.934-4.741-8.402-17.023-7.231-22.088c0.78-3.375,10.1-6.382,13.681-9.122
	c3.174-2.429,6.074-5.46,8.764-8.391c4.533-4.939,18.07-23.845,2.062-24.443c15.952-12.909,40.583-20.275,60.301-12.093
	c-3.138,5.854-6.033,11.843-8.604,17.969c-1.402,3.339-2.908,12.855-5.423,15.169c-1.519,1.398-7.928,1.263-10.357,1.872
	c-3.423,0.859-6.8,1.939-10.085,3.229c-6.136,2.41-11.944,5.619-17.29,9.469c-3.891,2.802-12.293,7.671-11.24,13.404
	c0.869,4.731,9.856,9.877,13.614,12.377c11.165,7.427,24.149,12.006,37.511,13.194C220.362,671.468,216.524,673.111,212.782,674.751
	z M233.692,627.156c-2.613,2.835-1.174,7.172-2.912,9.488c-1.488,1.983-5.4,2.432-7.458,4.781
	c-5.496,6.274-1.643,13.004,3.773,17.389c-15.274-0.815-30.147-6.732-41.78-16.669c13.796-11.815,31.992-17.739,50.096-16.533
	C234.838,626.127,234.265,626.641,233.692,627.156z M260.398,647.412c-2.346,0.221-3.65,0.428-5.867-0.713
	c1.893-5.049,5.473-9.739,4.05-15.47c6.344,2.75,12.316,6.42,17.57,10.919C270.274,647.184,267.739,646.742,260.398,647.412z
	 M265.501,667.801c6.488-2.989,6.106-6.73,9.418-11.678c1.359-2.031,7.754-6.496,9.397-6.115c3.561,0.825,9.528,9.528,12.044,12.044
	c7.677,7.677,15.33,15.379,23.031,23.031c3.065,3.046,6.115,6.076,9.444,8.843c3.108,2.583,14.72,7.687,16.187,10.89
	c0.444,0.969-2.593,10.555-2.817,11.849c-0.578,3.34-0.945,6.712-1.161,10.094c-0.178,2.799-0.198,5.592-0.216,8.392
	c-0.077,11.988,0,23.98,0,35.968c-11.166-2.447-22.355-5.094-33.102-9.038c11.295-21.109,5.039-48.242-13.608-62.984
	c-3.906-3.088-8.301-5.598-12.954-7.372c-3.436-1.31-10.635-1.047-13.186-2.989c-1.565-1.192-4.612-10.18-5.515-13.652
	C261.356,670.824,260.855,669.941,265.501,667.801z M261.384,711.643c1.253-2.702,1.977-6.267,3.522-8.776
	c2.628-4.269,1.781-4.162,7.133-3.014c6.042,1.295,11.738,4.096,16.465,8.074c10.493,8.828,16.242,23.27,14.161,36.878
	c-0.459,3-1.08,7.766-3.026,10.08c-2.998,3.565-2.243,3.018-7.175,0.504c-6.144-3.132-12.062-6.693-17.897-10.362
	c-5.741-3.609-9.24-7.632-13.006-13.246C256.518,724.264,257.555,719.894,261.384,711.643z M265.859,788.253
	c0.602-8.24-1.382-12.834-3.502-20.307c-2.097-7.394,2.991-8.123,5.96-14.49c4.873,3.092,4.007,2.192,4.37,6.929
	c0.26,3.387-1.212,7.447-1.45,10.945c-0.515,7.593,0.011,15.226,1.707,22.649c1.584,6.932,5.413,12.646,7.37,19.263
	c0.826,1.549,1.722,3.058,2.688,4.527c-1.03,1.29-2.006,2.619-2.927,3.988c-1.349,3.417-4.267,6.658-5.929,10.015
	C269.67,818.008,264.795,802.838,265.859,788.253z M279.414,846.215c6.564-12.566,11.08-23.617,22.5-32.922
	c10.969-8.938,24.603-14.386,38.711-15.478c-1.19,15.119-7.445,29.643-17.507,40.975c-4.663,5.252-10.121,9.81-16.131,13.444
	c-4.803,2.905-17.455,5.124-20.038,9.886C284.12,856.981,281.637,851.644,279.414,846.215z M293.862,872.789
	c-0.733-0.987-1.466-1.973-2.199-2.96c4.116-0.1,9.109-2.76,12.826-4.481c3.905-1.808,10.836-8.182,14.747-8.876
	c4.262-0.756,10.506,4.807,15.012,7.171c5.885,3.088,11.99,5.769,18.254,7.994c-7.592,13.142-20.09,23.217-34.41,28.162
	c-7.832,2.705-11.482,3.34-14.759-5.075C300.205,886.692,299.394,880.018,293.862,872.789z M327.188,907.456
	c4.586,8.92,9.172,17.84,13.758,26.759c-3.518,0.504-9.277,1.858-12.818,1.353c-5.202-0.742-4.317-0.08-5.931-5.956
	c-1.75-6.371-3.877-12.265-7.18-18.018C319.182,910.567,323.261,909.186,327.188,907.456z M326.323,946.155
	c8.902-0.484,17.806-1.591,26.546-3.36c-2.065,8.409-3.296,17.647-6.321,25.74c-2.178,5.826-2.965,5.824-10.715,3.553
	c-4.236-1.242-1.168,1.383-3.802-2.009c-1.302-1.677-1.551-6.097-2.052-8.177C328.716,956.663,327.538,951.404,326.323,946.155z
	 M377.614,1063.598c-5.754-7.853-6.863-17.319-10.497-26.161c-2.999-7.296-7.687-13.807-10.631-21.073
	c-1.506-3.717-1.536-8.067-3.465-11.623c-2.634-4.855-5.619-4.26-9.202-7.141c-4.721-3.796-6.106-8.955-8.116-15.035
	c45.295,3.214,73.143,56.948,49.102,95.781C383.27,1072.849,380.986,1068.203,377.614,1063.598z M430.527,1135.212
	c-11.477,9.839-26.839,1.342-32.156-11.013c-2.525-5.869-4.008-10.162-7.76-15.417c-0.955-1.337-3.702-3.702-3.678-5.68
	c0.027-2.274,3.959-4.283,3.532-8.033c7.696,6.487,15.393,12.975,23.089,19.462c4.853,4.091,9.707,8.182,14.56,12.273
	C431.716,1129.84,435.579,1130.881,430.527,1135.212z M486.538,1062.502c-11.343,2.705-12.784,14.117-18.627,22.543
	c-3.523,5.081-4.733,8.428-5.256,14.48c-0.281,3.247,1.993,2.408-0.49,5.051c-1.546,1.645-6.532,1.509-8.584,1.896
	c3.782-33.82-8.081-68.735-22.267-98.937c10.195,10.185,20.379,20.38,30.571,30.568
	C464.703,1040.922,483.162,1063.317,486.538,1062.502z M494.362,1004.639c-3.308,3.853-5.029,4.307-4.959,9.967
	c0.061,4.943,1.133,9.978,1.383,14.926c0.19,3.757,2.704,7.848,2.661,11.324c-0.054,4.434-3.92,6.74-2.198,11.809
	c-5.823-5.821-18.493-14.201-19.521-22.001c-0.857-6.505,2.033-15.35,2.894-21.851c0.689-5.203,1.378-10.405,2.067-15.608
	c7.958,2.289,16.265,3.174,24.523,2.625C499.122,998.903,496.778,1001.818,494.362,1004.639z M510.756,970.457
	c-0.425,5.564-2.3,11.195-4.488,16.284c-2.832-2.746-8.881-1.122-12.495-1.282c-4.949-0.22-9.872-1.021-14.626-2.426
	c-10.119-2.99-19.343-8.627-26.766-16.103c-15.705-15.816-22.554-39.184-16.682-60.839c9.374,4.453,21.229,5.548,30.076,10.288
	c3.561-0.549,5.024,0.869,4.39,4.256c0.372,2.302,0.842,4.584,1.411,6.846c1.146,4.552,2.69,9.004,4.614,13.286
	c3.158,7.029,9.28,19.952,16.411,23.762c5.977,3.193,8.585-1.546,13.544-4.734C508.407,964.676,511.38,964.605,510.756,970.457z
	 M615.255,799.499c-7.857,7.127-18.612,10.161-26.764,16.943c-8.343,6.941-7.836,15.004-12.526,23.577
	c-4.206,7.688-11.373,4.53-18.697,4.887c-9.244,0.451-13.043,6.765-16.199,14.594c-3.943-2.301-6.57,0.843-9.863,2.426
	c-5.938,2.853-11.659,3.977-16.872,8.454c-1.345-2.563-11.043-13.914-10.771-15.647c0.104-0.663,1.548-1.208,1.824-1.825
	c1.76-3.925,8.431-8.431,11.438-11.439c8.184-8.184,16.497-16.259,24.56-24.562c6.11-6.292,10.148-13.989,15.859-20.382
	c2.997-3.354,1.021-2.329,5.619-1.997c3.852,0.279,8.05,1.811,11.927,2.307c4.259,0.545,8.523,0.713,12.814,0.775
	c9.928,0.142,19.866,0,29.795,0C616.685,798.24,615.97,798.869,615.255,799.499z M680.739,731.414
	c-3.332,7.291-9.486,11.133-14.323,17.222c-5.092,6.409-9.202,13.507-14.645,19.668c0-8.318,0-16.637,0-24.955
	c0-3.432,0.057-6.87,0-10.301c-0.108-6.492-5.327-25.493-2.641-29.096c2.212-2.969,8.766-5.423,11.853-7.8
	c3.337-2.57,6.439-5.372,9.461-8.303c2.242-2.174,4.419-4.419,6.628-6.628c6.069-6.069,12.139-12.139,18.208-18.208
	c7.014,8.332,14.191,16.61,19.822,25.974c-9.744,0.99-17.991,7.508-22.564,15.958c-2.13,3.936-2.629,7.994-4.015,12.128
	C686.814,722.167,683.138,726.174,680.739,731.414z M711.246,718.817c-4.155,0.842-7.953-1.9-11.98-2.376
	c1.515-6.438,12.097-22.645,21.194-16.92c1.3,0.818,4.398,11.384,3.785,12.776C723.026,715.06,714.153,718.226,711.246,718.817z
	 M741.134,679.918c0.161,9.352-1.414,17.663-7.845,24.886c-2.911-10.868-8.446-20.733-14.957-29.828
	c-2.865-4.003-5.957-7.836-9.096-11.626c-3.157-3.812-6.487-5.534-4.93-9.364c3.898-9.59,13.677,2.739,18.895,5.651
	c4.657,2.6,11.679,3.675,15.853,6.621c3.831,2.704,1.772-0.346,2.551,4.066C742.046,672.817,741.089,677.286,741.134,679.918z
	 M776.347,639.52c-4.004,9.107-16.805,14.757-25.794,17.43c-10.297,3.061-26.56-8.218-34.102-14.771
	c17.282-14.563,42.814-19.707,63.639-9.871C778.569,634.528,777.425,637.068,776.347,639.52z M809.344,606.135
	c4.185,8.8,11.897,19.572,12.849,29.304c0.245,2.5-0.118,16.694-2.104,18.435c-4.681,4.105-2.21-11.483-2.614-13.363
	c-2.414-11.233-12.041-8.652-16.943-1.229c-3.5-1.787-6.78-6.121-8.983-9.356c-3.875-5.689-6.982-7.569-14.371-9.931
	c-4.956-1.584-4.258-1.131-5.991-5.308c-1.357-3.27-1.741-7.904-2.714-11.343c-2.116-7.485-4.885-14.8-8.227-21.823
	c7.195-1.963,14.726-2.598,22.149-1.949c3.046,0.266,6.077,0.719,9.052,1.435c5.281,1.271,4.971,1.552,8.168,4.832
	c1.114,1.142,3.31,3.327,3.89,4.68c0.731,1.705-0.479,1.995-0.113,3.832C804.509,599.968,806.998,601.203,809.344,606.135z
	 M803.62,565.183c0.086,1.166-2.394,7.025-3.457,7.466c-0.952,0.395-10.171-2.632-11.461-2.846
	c-7.241-1.202-14.574-1.202-21.835-0.216c9.212-12.464,16.327-26.399,21.525-40.982c6.161,2.726,5.346,2.47,3.782,8.508
	c-1.093,4.219-1.516,9.152-0.183,13.337C793.789,556.098,803.23,560.014,803.62,565.183z M800.054,508.888
	c3.647,3.928,15.39,6.534,11.254,11.277c-3.437,3.941-10.894,2.513-14.423,0.839c-4.866-2.308-4.099-1.369-4.332-5.615
	c-0.161-2.934,1.823-7.077,2.449-9.909C797.098,506.083,798.584,507.306,800.054,508.888z M834.586,483.494
	c1.286-3.73-8.667-14.154-12.502-14.803c-4.671-0.79-3.742,1.859-7.474,2.429c-1.974,0.301-4.175-0.906-6.084-1.345
	c-14.736-3.388-18.917,0.943-23.811,15.131c-4.271-2.196-8.543-4.392-12.814-6.588c4.529-3.767,10.053-6.714,13.769-11.319
	c6.763-8.382,6.831-19.651,8.08-29.808c0.461-3.748,4.749-26.009,13.192-20.62c2.75,1.755,0.168,19.295,0.098,22.358
	c-0.112,4.933-2.549,9.952,0.162,15.159c3.155,6.057,9.967,8.55,16.247,9.97c4.339,0.981,17.607,2.093,19.122,5.984
	C844.324,474.538,835.778,479.802,834.586,483.494z M888.986,515.807c-6.532,0.52-13.153,0.391-19.628-0.661
	c-1.555-0.253-10.579-1.4-11.516-2.748c-0.418-0.602,0.657-5.217,0.676-6.174c0.158-8.205-2.256-15.585-5.551-22.878
	c-2.462-5.449-1.938-9.561,2.449-13.412c9.814-8.614,18.378-3.439,29.538-2.676c-6.272,4.812-20.805,12.25-14.915,21.374
	c6.107,9.461,17.189,18.297,24.637,27.052C892.776,515.624,890.88,515.665,888.986,515.807z M937.754,548.633
	c0.831-2.104,0.582-4.041,1.819-5.443c2.758-3.127,7.081-2.776,8.561-8.022c2.031-7.195-3.885-12.682-9.704-15.721
	c1.986-0.159,5.139-1.025,7.068-0.564c4.411,1.052,3.491,1.72,5.87,6.65c2.714,5.625,7.139,10.01,10.011,15.372
	c2.577,4.81,2.28,0.83,0.513,4.5c-1.676,3.482-9.136,9.31-12.408,11.444c-0.525,0.342-2.428,2.86-3.028,2.793
	C944.36,559.407,937.231,549.953,937.754,548.633z M935.976,567.842c-4.417,2.421-15.192,4.079-17.637,7.468
	c-1.659,2.299-1.146,4.763-1.953,7.256c-1.466,4.527-4.106,8.634-5.611,13.148c-20.972-18.194,12.096-26.371,20.988-36.604
	c2.488,2.755,5.005,5.486,7.539,8.199C938.193,567.487,937.084,567.664,935.976,567.842z M966.543,597.843
	c-9.081,2.814-10.25,14.746-9.714,22.717c0.176,2.616,3.105,14.925-3.039,13.037c-4.998-1.536-6.556-21.358-7.396-25.067
	c-2.831-12.491-1.509-24.122-2.748-36.611C948.746,577.289,967.109,590.813,966.543,597.843z M993.76,566.664
	c-7.189,3.416-16.568-4.445-24.506-0.926c-8.343,3.698-1.959,9.27-1.483,15.82c-4.795-4.685-9.492-9.472-14.13-14.313
	c4.761-4.391,9.815-11.139,15.431-14.232c4.124-2.271,3.29-1.43,8.117,1.632c5.778,3.665,12.933,7.427,19.719,8.582
	C996.148,564.648,995.098,565.793,993.76,566.664z M1009.243,534.528c-3.295,6.291-5.254,13.186-7.955,19.736
	c-2.902-2.649-8.654-3.246-12.229-4.907c-3.97-1.845-7.805-4.142-11.251-6.848c-5.699-4.475-10.577-10.082-14.29-16.309
	c-8.808-14.771-11.397-33.138-7.282-49.804c8.56-34.674,45.763-54.72,79.632-43.53c-3.782,6.999-6.965,14.332-9.505,21.871
	c-0.568,1.685-2.139,10.389-3.343,11.5c-1.429,1.318-8.76,1.044-10.642,1.424c-12.335,2.489-27.717,8.323-36.455,17.833
	c-8.497,9.248,9.555,19.521,16.916,23.891c2.955,1.755,6.048,3.329,9.205,4.687c1.068,0.432,2.135,0.864,3.203,1.296
	c3.111,0.052,4.438,1.645,3.983,4.779C1012.293,525.547,1012.026,529.066,1009.243,534.528z M1024.999,492.206
	c-1.582,7.85-6.987,14.904-14.855,13.793c-8.52-1.203-18.414-9.334-24.409-15.036c11.209-8.626,25.018-13.631,39.135-14.334
	C1024.709,481.714,1026.019,487.169,1024.999,492.206z M1059.038,442.199c-7.048,6.504-14.129,11.051-22.6,15.38
	c4.632-13.538,11.539-26.237,20.145-37.657c2.752,5.624,6.233,10.948,10.351,15.67
	C1064.111,437.545,1061.551,439.873,1059.038,442.199z M1100.968,413.827c-6.075,3.344-11.349,7.844-9.981,15.489
	c0.828,4.625,4.693,7.239,6.321,11.332c-3.59,1.473-5.536-2.866-7.673-4.767c-4.393-3.906-9.355-2.928-13.449-5.32
	c-3.63-2.121-6.904-9.007-8.938-12.708c-4.169-7.585-1.517-9.199,4.691-14.385c1.186-0.991,3.991-4.008,5.526-4.212
	c0.791-0.105,5.031,1.641,6.447,1.767c3.394,0.303,5.689-0.555,8.61,0.796c1.903,0.88,3.925,2.897,5.938,3.885
	c1.055,0.518,3.391-0.28,4.126,0.219C1107.011,408.928,1104.359,411.958,1100.968,413.827z"/>
</svg>
